<svg width="217" height="97" viewBox="0 0 217 97" fill="none" xmlns="http://www.w3.org/2000/svg">
<path fill-rule="evenodd" clip-rule="evenodd" d="M0.228065 46.6563C1.48422 31.2791 7.79145 14.5643 15.7808 0L16.4687 0.377316C8.50949 14.8865 2.25396 31.492 1.00998 46.7202C-0.233481 61.942 3.53028 75.7307 15.5364 84.7288C27.5661 93.7445 47.9612 98.0236 80.1528 93.9769C112.333 89.9316 156.234 77.5746 215.202 53.4095L215.5 54.1354C156.501 78.3131 112.528 90.6978 80.2506 94.7553C47.9845 98.8113 27.3382 94.5541 15.0659 85.3566C2.77013 76.1414 -1.0286 62.0398 0.228065 46.6563Z" fill="#CD483F"/>
<path d="M200.837 53.1438L215.351 53.5361L209.467 64.1271" stroke="#CD483F" stroke-width="0.784522"/>
</svg>
