<svg width="408" height="203" viewBox="0 0 408 203" fill="none" xmlns="http://www.w3.org/2000/svg">
<mask id="path-1-outside-1_12_249" maskUnits="userSpaceOnUse" x="-1" y="-0.15918" width="409" height="203" fill="black">
<rect fill="white" x="-1" y="-0.15918" width="409" height="203"/>
<path fill-rule="evenodd" clip-rule="evenodd" d="M338.627 3.88927C374.062 16.0241 397.845 36.1733 402.208 61.9774C411.452 116.656 329.995 176.02 220.269 194.571C110.543 213.122 14.0986 183.835 4.85432 129.157C1.60586 109.942 9.55744 90.1498 26 71.7528V68.3482C7.41373 87.8806 -1.7523 109.11 1.72639 129.685C11.1162 185.225 109.079 214.973 220.533 196.13C331.986 177.287 414.726 116.988 405.336 61.4486C400.831 34.8045 375.942 14.0962 338.958 1.84082L338.627 3.88927Z"/>
</mask>
<path fill-rule="evenodd" clip-rule="evenodd" d="M338.627 3.88927C374.062 16.0241 397.845 36.1733 402.208 61.9774C411.452 116.656 329.995 176.02 220.269 194.571C110.543 213.122 14.0986 183.835 4.85432 129.157C1.60586 109.942 9.55744 90.1498 26 71.7528V68.3482C7.41373 87.8806 -1.7523 109.11 1.72639 129.685C11.1162 185.225 109.079 214.973 220.533 196.13C331.986 177.287 414.726 116.988 405.336 61.4486C400.831 34.8045 375.942 14.0962 338.958 1.84082L338.627 3.88927Z" fill="#CD483F"/>
<path d="M338.627 3.88927L337.64 3.72986L337.505 4.56218L338.303 4.83533L338.627 3.88927ZM402.208 61.9774L403.194 61.8107L402.208 61.9774ZM4.85432 129.157L5.84032 128.99L4.85432 129.157ZM26 71.7528L26.7456 72.4192L27 72.1346V71.7528H26ZM26 68.3482H27V65.8467L25.2756 67.6589L26 68.3482ZM1.72639 129.685L2.71239 129.519H2.71239L1.72639 129.685ZM220.533 196.13L220.366 195.144L220.533 196.13ZM405.336 61.4486L404.35 61.6153L405.336 61.4486ZM338.958 1.84082L339.272 0.891579L338.158 0.522244L337.97 1.68141L338.958 1.84082ZM338.303 4.83533C373.613 16.9275 396.951 36.8855 401.222 62.1441L403.194 61.8107C398.739 35.4611 374.51 15.1207 338.951 2.94321L338.303 4.83533ZM401.222 62.1441C405.746 88.9069 388.093 117.088 355.263 141.014C322.489 164.899 274.846 184.33 220.103 193.585L220.436 195.557C275.418 186.261 323.367 166.734 356.441 142.63C389.461 118.566 407.913 89.7263 403.194 61.8107L401.222 62.1441ZM220.103 193.585C165.359 202.84 113.977 200.152 75.1717 188.368C36.3015 176.564 10.365 155.753 5.84032 128.99L3.86831 129.323C8.58789 157.239 35.4958 178.41 74.5905 190.282C113.75 202.173 165.453 204.853 220.436 195.557L220.103 193.585ZM5.84032 128.99C2.66053 110.182 10.4209 90.6844 26.7456 72.4192L25.2544 71.0864C8.69402 89.6152 0.551191 109.703 3.86831 129.323L5.84032 128.99ZM27 71.7528V68.3482H25V71.7528H27ZM25.2756 67.6589C6.57073 87.3158 -2.8108 108.848 0.740379 129.852L2.71239 129.519C-0.693799 109.372 8.25674 88.4453 26.7245 69.0376L25.2756 67.6589ZM0.740379 129.852C5.53273 158.198 32.8566 179.7 72.5651 191.758C112.339 203.836 164.853 206.557 220.699 197.116L220.366 195.144C164.759 204.545 112.565 201.814 73.1462 189.844C33.6623 177.854 7.30984 156.712 2.71239 129.519L0.740379 129.852ZM220.699 197.116C276.546 187.674 325.247 167.84 358.84 143.358C392.377 118.917 411.114 89.6279 406.322 61.2819L404.35 61.6153C408.947 88.8085 391.009 117.439 357.662 141.742C324.369 166.005 275.974 185.742 220.366 195.144L220.699 197.116ZM406.322 61.2819C401.723 34.0837 376.378 13.1871 339.272 0.891579L338.643 2.79006C375.506 15.0052 399.939 35.5254 404.35 61.6153L406.322 61.2819ZM337.97 1.68141L337.64 3.72986L339.614 4.04868L339.945 2.00023L337.97 1.68141Z" fill="#CD483F" mask="url(#path-1-outside-1_12_249)"/>
</svg>
