<svg width="140" height="81" viewBox="0 0 140 81" fill="none" xmlns="http://www.w3.org/2000/svg">
<path d="M10.0338 43.7045C10.0988 42.4889 10.1595 41.3222 10.216 40.2043C10.2724 39.0865 10.309 38.0564 10.3257 37.1142C10.3505 36.1698 10.3457 35.3419 10.3114 34.6304C10.2852 33.9168 10.227 33.3593 10.1368 32.958C10.132 32.5512 10.2207 32.2018 10.403 31.9099C10.5933 31.6158 10.8505 31.4253 11.1746 31.3385C11.369 31.2864 11.547 31.2864 11.7086 31.3386C11.8702 31.3908 12.011 31.479 12.1311 31.6031C12.2593 31.7251 12.3686 31.8738 12.4591 32.0492C12.5473 32.2166 12.6164 32.3935 12.6663 32.5798C12.7032 32.7175 12.7288 32.8452 12.743 32.963C12.7572 33.0808 12.7662 33.1956 12.7701 33.3074C12.7835 34.1026 12.7669 34.9319 12.7204 35.7953C12.6739 36.6587 12.6226 37.5364 12.5664 38.4284C12.5161 39.3101 12.4669 40.1959 12.4188 41.0858C12.3707 41.9756 12.3466 42.8417 12.3466 43.684L12.3492 44.5689C12.3487 45.0205 12.3589 45.4476 12.3799 45.8501C12.401 46.2525 12.4429 46.5712 12.5059 46.8061C12.5406 46.9358 12.5931 47.0346 12.6635 47.1026C12.7316 47.1624 12.8345 47.1739 12.9723 47.137C13.3044 47.048 13.6791 46.8912 14.0965 46.6665C14.5117 46.4337 14.9376 46.1763 15.3743 45.8943C15.8089 45.6042 16.2361 45.303 16.6561 44.9908C17.082 44.6683 17.4706 44.3688 17.822 44.0923C18.0087 43.9468 18.1663 43.822 18.2948 43.7182C18.4313 43.6121 18.597 43.4852 18.7919 43.3375C18.9927 43.1795 19.2588 42.9736 19.5902 42.7198C19.9216 42.4661 20.3785 42.1136 20.9609 41.6623C21.0634 41.5914 21.152 41.5329 21.2265 41.4869C21.3069 41.4306 21.3836 41.3927 21.4565 41.3732C21.5861 41.3385 21.702 41.3335 21.8041 41.3582C21.9144 41.3808 22.0046 41.426 22.0749 41.494C22.1534 41.5598 22.2188 41.6421 22.2713 41.7409C22.3239 41.8397 22.3642 41.9418 22.3925 42.0471C22.4402 42.2253 22.4663 42.3877 22.4708 42.5341C22.4813 42.6702 22.4822 42.7872 22.4737 42.885C22.4177 43.0649 22.3301 43.2403 22.2109 43.4112C22.0896 43.574 21.9569 43.7267 21.8128 43.8695C21.6665 44.0042 21.5211 44.1257 21.3764 44.2339C21.2318 44.3421 21.1111 44.4266 21.0145 44.4872C20.8979 44.5705 20.7411 44.682 20.5441 44.8216C20.3551 44.9591 20.1481 45.1101 19.9231 45.2746C19.698 45.4391 19.4659 45.6098 19.2267 45.7867C18.9855 45.9556 18.7593 46.1161 18.5482 46.2681C18.3372 46.4202 18.1482 46.5576 17.9815 46.6805C17.8206 46.793 17.707 46.8712 17.6406 46.9151C17.3269 47.138 16.9772 47.388 16.5912 47.6651C16.2134 47.94 15.8334 48.2068 15.4512 48.4655C15.069 48.7242 14.7016 48.9572 14.3491 49.1646C14.0025 49.3616 13.7036 49.4938 13.4525 49.5611C13.1446 49.6436 12.8951 49.6844 12.7038 49.6836C12.5207 49.6805 12.3494 49.657 12.19 49.6129C12.0284 49.5606 11.8584 49.4933 11.68 49.4109C11.5097 49.3263 11.2876 49.2425 11.0136 49.1596C10.7682 49.0865 10.5706 48.9484 10.4207 48.7454C10.2708 48.5425 10.1611 48.3114 10.0916 48.0522C10.0569 47.9225 10.0249 47.7705 9.99548 47.596C9.9742 47.4194 9.95479 47.2336 9.93727 47.0386C9.91975 46.8435 9.90737 46.6515 9.90012 46.4624C9.89287 46.2733 9.89509 46.1034 9.9068 45.9527L10.0338 43.7045ZM23.8993 44.3264C23.8949 43.8239 23.8942 43.238 23.8971 42.5687C23.9001 41.8993 23.9014 41.1913 23.9011 40.4447C23.9088 39.6959 23.9122 38.9309 23.9113 38.1497C23.9104 37.3685 23.9027 36.6108 23.8883 35.8766C23.8877 35.842 23.902 35.7818 23.9311 35.6958C23.958 35.6018 24.0062 35.5064 24.0758 35.4096C24.1432 35.3047 24.2381 35.2054 24.3607 35.1118C24.4832 35.0182 24.6376 34.9465 24.8239 34.8965C24.9617 34.8596 25.0997 34.84 25.238 34.8377C25.3741 34.8273 25.4984 34.8374 25.6108 34.868C25.7313 34.8965 25.8329 34.9518 25.9157 35.0338C26.0044 35.1055 26.065 35.2022 26.0976 35.3237C26.1041 35.348 26.1117 35.3763 26.1204 35.4088C26.1269 35.4331 26.1293 35.4584 26.1277 35.4849L26.1326 36.8642C26.1383 38.4082 26.1369 39.9585 26.1285 41.5149C26.1282 43.0692 26.1371 44.6254 26.1551 46.1835C26.152 46.2364 26.1439 46.3037 26.1311 46.3853C26.1182 46.4669 26.0932 46.5517 26.056 46.6398C26.0188 46.7279 25.9662 46.8072 25.8983 46.8775C25.8303 46.9478 25.7396 46.9981 25.6262 47.0285C25.4155 47.085 25.2173 47.0903 25.0314 47.0446C24.8476 47.007 24.6817 46.9386 24.5335 46.8394C24.3854 46.7402 24.2623 46.6212 24.1644 46.4825C24.0664 46.3437 23.999 46.2055 23.9621 46.0678C23.9513 46.0273 23.9415 45.9908 23.9328 45.9584C23.9241 45.926 23.9225 45.8874 23.9278 45.8425L23.8993 44.3264ZM23.7008 30.8995C23.6958 30.7185 23.7133 30.4924 23.7535 30.2211C23.7937 29.9499 23.9214 29.6812 24.1367 29.4151C24.2468 29.3075 24.3874 29.2004 24.5585 29.0937C24.7275 28.979 24.8524 28.9108 24.9335 28.8891C25.0145 28.8674 25.1031 28.874 25.1993 28.909C25.3036 28.9418 25.3968 28.982 25.479 29.0294C25.5817 29.0887 25.6826 29.1572 25.7815 29.2349C25.9884 29.1968 26.1375 29.235 26.229 29.3494C26.3285 29.4617 26.4022 29.6069 26.4499 29.7852C26.4847 29.9148 26.504 30.0355 26.5079 30.1473C26.5118 30.2592 26.5144 30.3496 26.5155 30.4188C26.5125 30.6019 26.4617 30.7849 26.363 30.9676C26.2622 31.1422 26.1368 31.3061 25.9868 31.4591C25.8346 31.6041 25.6689 31.731 25.4897 31.8398C25.3104 31.9486 25.1479 32.0225 25.0021 32.0616C24.8158 32.1115 24.6612 32.1182 24.5386 32.0816C24.424 32.0429 24.2615 31.9388 24.0512 31.7694C23.9295 31.6718 23.8519 31.5927 23.8183 31.5322C23.7907 31.4615 23.7703 31.4018 23.7573 31.3532C23.7334 31.2641 23.7169 31.1861 23.7076 31.1191C23.7043 31.0418 23.702 30.9686 23.7008 30.8995ZM29.8044 40.8556C29.7906 40.156 29.7859 39.3931 29.7903 38.5671C29.7925 37.7329 29.7996 36.8845 29.8115 36.0217C29.8213 35.1508 29.8292 34.2891 29.8352 33.4365C29.8493 32.5819 29.8551 31.7771 29.8526 31.0224C29.85 30.2677 29.8376 29.5894 29.8153 28.9876C29.801 28.3836 29.7716 27.9009 29.7268 27.5396L29.5968 26.5195C29.6015 26.44 29.6041 26.3525 29.6046 26.2569C29.6131 26.1591 29.6359 26.0661 29.6731 25.978C29.7081 25.8818 29.7626 25.7934 29.8365 25.7128C29.9185 25.6301 30.0284 25.5703 30.1661 25.5334C30.4172 25.4661 30.6398 25.4542 30.8338 25.4977C31.0278 25.5412 31.194 25.6269 31.3325 25.7548C31.4769 25.8724 31.5954 26.023 31.688 26.2066C31.7806 26.3902 31.8551 26.5873 31.9115 26.7979C31.968 27.0085 32.0093 27.2275 32.0355 27.455C32.0595 27.6743 32.0741 27.8744 32.0792 28.0554C32.1092 29.2369 32.102 30.4414 32.0576 31.6689C32.019 32.8861 32.0151 34.1028 32.0457 35.3188C32.2814 34.9344 32.5456 34.5597 32.8385 34.1947C33.1293 33.8216 33.446 33.4806 33.7887 33.1717C34.1373 32.8525 34.506 32.5757 34.8947 32.3413C35.2834 32.107 35.6884 31.9333 36.1096 31.8204C36.5552 31.7011 36.9574 31.6628 37.3161 31.7055C37.6749 31.7483 37.99 31.8549 38.2614 32.0253C38.5307 32.1876 38.7551 32.4097 38.9348 32.6915C39.1226 32.9711 39.2643 33.2891 39.3598 33.6456C39.4054 33.8157 39.441 33.9972 39.4666 34.19C39.4982 34.3726 39.5165 34.5544 39.5216 34.7353C39.5367 35.6343 39.4388 36.468 39.228 37.2365C39.0252 38.0028 38.7473 38.7155 38.3942 39.3745C38.0471 40.0232 37.6402 40.6271 37.1735 41.1863C36.7128 41.7352 36.2331 42.2458 35.7345 42.718C35.408 43.0226 35.0817 43.2793 34.7557 43.4882C34.4355 43.6869 34.1054 43.8318 33.7651 43.923C33.433 44.012 33.1691 44.048 32.9735 44.0309C32.7838 44.0036 32.6017 43.9395 32.4271 43.8387C32.4083 43.9306 32.3784 44.0297 32.3375 44.1362C32.3046 44.2405 32.2545 44.3451 32.1871 44.45C32.1256 44.5446 32.0407 44.6325 31.9322 44.7137C31.8318 44.7927 31.7087 44.8517 31.5628 44.8908C31.1011 45.0145 30.7426 44.989 30.4874 44.8143C30.23 44.6314 30.0492 44.3456 29.945 43.9567C29.9081 43.819 29.8793 43.6791 29.8586 43.5371C29.8439 43.3847 29.8383 43.2343 29.8419 43.0857L29.8044 40.8556ZM36.2077 33.839C35.8269 33.941 35.4357 34.15 35.0342 34.466C34.6407 34.7798 34.2562 35.1433 33.8807 35.5565C33.503 35.9616 33.148 36.3867 32.8158 36.8317C32.4813 37.2686 32.1868 37.6601 31.9322 38.0062C31.924 38.3644 31.9126 38.7104 31.8978 39.0443C31.8831 39.3782 31.8695 39.7162 31.8569 40.0581C31.8524 40.398 31.8542 40.7448 31.8622 41.0987C31.8783 41.4504 31.9079 41.8201 31.951 42.208L32.0051 42.7014L32.1366 42.9006C32.2807 42.7578 32.4151 42.6437 32.5398 42.5582C32.6726 42.4705 32.7995 42.3931 32.9204 42.3259C33.0473 42.2485 33.1782 42.17 33.3132 42.0905C33.4481 42.0109 33.5949 41.9108 33.7536 41.7901C34.8888 40.9389 35.7706 39.9689 36.3993 38.8801C37.036 37.7891 37.3441 36.5734 37.3236 35.2331C37.3164 35.044 37.3064 34.8774 37.2938 34.7331C37.2812 34.5889 37.2597 34.4601 37.2293 34.3467C37.1642 34.1036 37.0506 33.9387 36.8884 33.8519C36.7262 33.7651 36.4993 33.7608 36.2077 33.839ZM41.4367 36.9833C41.3434 36.6349 41.3573 36.3143 41.4785 36.0213C41.5997 35.7284 41.8034 35.5001 42.0896 35.3366C42.1309 35.1345 42.2046 34.8586 42.3106 34.509C42.4144 34.1512 42.5563 33.7572 42.7363 33.3269C42.9162 32.8967 43.1326 32.4567 43.3854 32.0069C43.6442 31.5468 43.9451 31.1145 44.2882 30.71C44.6373 30.2952 45.0299 29.9295 45.466 29.613C45.9103 29.2942 46.4078 29.061 46.9587 28.9134C47.4286 28.7875 47.8529 28.7346 48.2316 28.7547C48.6104 28.7748 48.9403 28.8557 49.2214 28.9974C49.5025 29.1392 49.7377 29.3366 49.9271 29.5898C50.1143 29.8348 50.2514 30.1194 50.3382 30.4434C50.412 30.7189 50.4461 30.9919 50.4405 31.2626C50.4486 31.7467 50.3443 32.2001 50.1277 32.6228C49.911 33.0455 49.6268 33.443 49.275 33.8151C48.9291 34.1769 48.5319 34.5091 48.0833 34.8116C47.6428 35.112 47.1907 35.3851 46.7269 35.6309C46.2712 35.8746 45.8252 36.0896 45.3889 36.276C44.9504 36.4542 44.5695 36.6041 44.246 36.7255C44.2122 36.8908 44.1973 37.0945 44.2014 37.3366C44.2114 37.5683 44.2446 37.7895 44.301 38.0001C44.4269 38.47 44.7109 38.7846 45.153 38.944C45.5952 39.1034 46.1443 39.0952 46.8005 38.9193C47.1813 38.8173 47.535 38.6791 47.8616 38.5048C48.1861 38.3223 48.4849 38.1251 48.758 37.9129C49.037 37.6906 49.2936 37.4655 49.5278 37.2378C49.7599 37.002 49.9687 36.7767 50.1543 36.562C50.3938 36.2894 50.6258 36.0536 50.8503 35.8545C51.0808 35.6452 51.2973 35.5134 51.4998 35.4591C51.7023 35.4048 51.8461 35.4227 51.931 35.5129C52.0137 35.5949 52.0703 35.6926 52.1007 35.806C52.1181 35.8708 52.1314 35.9367 52.1406 36.0037C52.1558 36.0604 52.1648 36.1101 52.1676 36.1528C52.1835 36.3743 52.1589 36.6066 52.0938 36.8498C52.0288 37.093 51.9237 37.3165 51.7786 37.5204C51.1141 38.4104 50.3742 39.1166 49.5591 39.6389C48.752 40.1591 47.8462 40.5537 46.8417 40.8229C46.6473 40.875 46.4131 40.9247 46.1393 40.972C45.8735 41.0172 45.5891 41.0413 45.286 41.0443C44.9829 41.0474 44.6752 41.017 44.3629 40.9531C44.0506 40.8892 43.7546 40.7731 43.4751 40.6049C43.2037 40.4345 42.9546 40.2016 42.7279 39.9064C42.5093 39.609 42.337 39.2253 42.2111 38.7555C42.1091 38.3747 42.0478 37.9353 42.0272 37.4372C41.9176 37.4492 41.8022 37.4237 41.6811 37.3606C41.566 37.2873 41.4845 37.1615 41.4367 36.9833ZM48.1418 31.579C48.1472 31.5341 48.1455 31.4955 48.1368 31.4631C48.1281 31.4307 48.1184 31.3942 48.1075 31.3537C48.0489 31.135 47.9245 30.9947 47.7342 30.9328C47.5418 30.8628 47.3322 30.8582 47.1054 30.9189C46.7489 31.0145 46.4215 31.202 46.123 31.4817C45.8327 31.7592 45.5716 32.081 45.3398 32.447C45.1138 32.8028 44.9268 33.1741 44.7787 33.5611C44.6284 33.94 44.5232 34.2765 44.463 34.5704C45.0333 34.3655 45.5474 34.1453 46.0052 33.9097C46.4609 33.6661 46.8452 33.4155 47.1583 33.158C47.4772 32.8901 47.719 32.6257 47.8834 32.3645C48.0538 32.0931 48.14 31.8313 48.1418 31.579ZM54.4468 37.1831C54.4001 36.5878 54.3545 35.9315 54.3099 35.2141C54.2653 34.4967 54.2225 33.7701 54.1817 33.0343C54.1408 32.2985 54.0992 31.576 54.0567 30.8667C54.0143 30.1574 53.9668 29.5102 53.9142 28.9252C53.8844 28.8464 53.8619 28.7786 53.8467 28.7219C53.8293 28.6571 53.8109 28.5882 53.7913 28.5153C53.724 28.2642 53.673 28.0087 53.6381 27.7489C53.6032 27.4891 53.5859 27.2462 53.5861 27.0204C53.5928 26.6887 53.6346 26.4561 53.7117 26.3225C53.7948 26.1787 53.9578 26.0743 54.2008 26.0091C54.4357 25.9462 54.6351 25.9449 54.7989 26.0052C54.9686 26.0552 55.1145 26.1463 55.2368 26.2786C55.3591 26.4108 55.4595 26.5749 55.538 26.7709C55.6144 26.9588 55.6809 27.1581 55.7373 27.3687C55.7677 27.4821 55.7973 27.6088 55.8261 27.7487C55.8549 27.8886 55.8801 27.999 55.9018 28.08C56.0657 27.7843 56.2407 27.4813 56.4267 27.171C56.6186 26.8504 56.8303 26.5549 57.0618 26.2845C57.2992 26.0038 57.5584 25.7563 57.8397 25.542C58.129 25.3256 58.4478 25.1707 58.7962 25.0774C58.9339 25.0405 59.0708 25.0168 59.2069 25.0064C59.3512 24.9938 59.4976 24.9893 59.6461 24.9929C59.819 24.99 60.0003 25.0022 60.1899 25.0295C60.3855 25.0466 60.5806 25.0941 60.7752 25.1722C61.0968 25.3031 61.388 25.4986 61.6487 25.7587C61.9153 26.0085 62.091 26.2914 62.1756 26.6074C62.2082 26.7289 62.2197 26.8691 62.2102 27.0279C62.1985 27.1787 62.1643 27.3267 62.1078 27.4721C62.0572 27.6072 61.986 27.7305 61.8943 27.8419C61.8004 27.9452 61.6846 28.0153 61.5469 28.0522C61.4092 28.0891 61.2304 28.1023 61.0105 28.0918C60.7965 28.0709 60.6095 28.0212 60.4495 27.9425C60.3798 27.9091 60.3006 27.8565 60.2119 27.7848C60.1313 27.7108 60.0507 27.6369 59.9701 27.563C59.8976 27.4869 59.8273 27.4189 59.7592 27.359C59.697 27.2889 59.6505 27.2449 59.6196 27.2271C59.577 27.2299 59.5313 27.2378 59.4827 27.2508C59.4319 27.2557 59.3863 27.2636 59.3458 27.2745C58.9326 27.3852 58.5679 27.5958 58.2517 27.9062C57.9355 28.2167 57.6566 28.5693 57.4151 28.964C57.1713 29.3505 56.9584 29.7549 56.7763 30.1771C56.6002 30.5889 56.4477 30.9597 56.319 31.2894C56.3328 31.989 56.3383 32.7386 56.3354 33.5382C56.3386 34.3275 56.3514 35.1533 56.3741 36.0155L56.4555 36.3193C56.5206 36.5623 56.5787 36.8116 56.6298 37.0671C56.6809 37.3225 56.692 37.5583 56.663 37.7745C56.6065 37.9199 56.504 38.0559 56.3556 38.1825C56.2174 38.315 56.039 38.4106 55.8203 38.4692C55.48 38.5603 55.1955 38.5193 54.9668 38.3462C54.7359 38.165 54.5803 37.9245 54.5 37.6247C54.4631 37.487 54.4453 37.3398 54.4468 37.1831ZM65.2383 31.5825C65.056 30.902 64.9441 30.1766 64.9027 29.4062C64.8591 28.6278 64.8322 27.8796 64.8222 27.1616C64.6094 27.2099 64.386 27.235 64.1521 27.2369C63.9182 27.2388 63.6991 27.2151 63.4948 27.1656C63.2905 27.1161 63.1132 27.0377 62.9629 26.9304C62.8104 26.815 62.7092 26.6641 62.6593 26.4778C62.6397 26.4049 62.631 26.3074 62.633 26.1853C62.635 26.0632 62.6503 25.9419 62.6788 25.8213C62.7132 25.6906 62.7692 25.5757 62.8469 25.4767C62.9224 25.3697 63.0209 25.2999 63.1424 25.2673L64.7708 24.831C64.9247 24.7897 65.0126 24.6967 65.0346 24.5519C65.0544 24.399 65.0632 24.2534 65.0608 24.1151C65.0403 23.617 65.0289 23.1859 65.0269 22.8218C65.0308 22.4474 65.0336 22.134 65.0355 21.8817C65.0352 21.6213 65.0317 21.4139 65.025 21.2594C65.0243 21.0946 65.012 20.9676 64.9881 20.8785C64.9599 20.7732 64.9287 20.673 64.8945 20.578C64.8604 20.4829 64.8205 20.3504 64.7749 20.1802L64.7424 20.0587C64.725 19.9939 64.7063 19.9078 64.6861 19.8003C64.6741 19.6906 64.6745 19.5299 64.6872 19.3181C64.6946 19.1512 64.7446 18.9815 64.8373 18.809C64.93 18.6366 65.102 18.5167 65.3531 18.4494C65.5718 18.3908 65.7701 18.3854 65.9479 18.4333C66.1257 18.4811 66.2827 18.565 66.419 18.6847C66.5553 18.8045 66.6727 18.9511 66.7712 19.1244C66.8698 19.2977 66.944 19.4775 66.9939 19.6638C67.0482 19.8663 67.0768 20.054 67.0797 20.2269L67.1043 23.8671C67.5222 23.677 67.8926 23.5039 68.2155 23.3479C68.5384 23.192 68.8613 23.036 69.1842 22.88C69.5373 22.7072 69.8388 22.5526 70.0888 22.4162C70.3469 22.2776 70.5677 22.162 70.7513 22.0694C70.9327 21.9687 71.0849 21.8888 71.2081 21.8298C71.3371 21.7604 71.4462 21.7139 71.5353 21.69C71.6649 21.6552 71.7978 21.6327 71.9339 21.6222C72.076 21.6015 72.2021 21.6025 72.3124 21.625C72.4307 21.6454 72.5342 21.6915 72.6229 21.7632C72.7116 21.835 72.7755 21.9438 72.8145 22.0896C72.8666 22.284 72.8728 22.469 72.833 22.6447C72.7992 22.81 72.7367 22.9657 72.6456 23.1117C72.5523 23.2495 72.4384 23.3756 72.3041 23.4897C72.1675 23.5958 72.0266 23.6856 71.8814 23.7593C71.7582 23.8183 71.5979 23.9003 71.4003 24.0054C71.2108 24.1083 70.9981 24.2217 70.7621 24.3457C70.5343 24.4675 70.2954 24.5967 70.0454 24.7331C69.7954 24.8695 69.5536 25.0038 69.3198 25.1359C68.9732 25.333 68.6749 25.4997 68.4249 25.6362C68.183 25.7705 67.9733 25.8788 67.7956 25.9611C67.618 26.0434 67.4706 26.109 67.3534 26.1577C67.2443 26.2043 67.1533 26.2374 67.0804 26.2569C67.0502 26.7599 67.0381 27.2494 67.0441 27.7254C67.0501 28.2013 67.0647 28.6446 67.0878 29.0551C67.1169 29.4554 67.1525 29.8149 67.1945 30.1336C67.2424 30.4421 67.2891 30.6813 67.3347 30.8515C67.3933 31.0702 67.47 31.2754 67.5648 31.4671C67.6574 31.6506 67.7718 31.8023 67.9081 31.9221C68.0444 32.0419 68.2055 32.1246 68.3914 32.1703C68.5832 32.2057 68.8047 32.1898 69.0559 32.1225C69.4852 32.0074 69.875 31.7771 70.2252 31.4315C70.5754 31.0858 70.8891 30.6849 71.1662 30.2286C71.4493 29.762 71.6994 29.2695 71.9165 28.7511C72.1417 28.2306 72.344 27.7379 72.5233 27.2731C72.5815 27.1012 72.6875 26.9947 72.8414 26.9534C72.89 26.9404 72.9489 26.9333 73.0181 26.9322C73.0953 26.9288 73.1718 26.9387 73.2474 26.9619C73.3231 26.985 73.3899 27.0236 73.4477 27.0775C73.5137 27.1293 73.5586 27.1997 73.5825 27.2889C73.5999 27.3537 73.6088 27.4034 73.6094 27.4379C73.6144 27.9749 73.5475 28.5355 73.4089 29.1197C73.2761 29.6936 73.1363 30.2737 72.9895 30.8601C72.9401 31.0644 72.8571 31.2733 72.7407 31.4868C72.6324 31.6982 72.5067 31.9098 72.3638 32.1218C72.2187 32.3256 72.0645 32.5276 71.901 32.7277C71.7354 32.9197 71.5786 33.0963 71.4308 33.2574C71.1751 33.5343 70.8747 33.7581 70.5297 33.9287C70.1846 34.0993 69.842 34.2302 69.5018 34.3213C68.9752 34.4624 68.4804 34.4952 68.0173 34.4195C67.5601 34.3336 67.1464 34.1667 66.776 33.9186C66.4115 33.6602 66.0978 33.3319 65.8348 32.9335C65.5717 32.5351 65.3729 32.0848 65.2383 31.5825ZM78.4707 38.1046C78.3492 38.1372 78.2311 38.1341 78.1165 38.0953C78.002 38.0566 77.8941 37.9943 77.793 37.9085C77.6999 37.8206 77.6158 37.7172 77.5406 37.5984C77.4675 37.4878 77.4147 37.3717 77.3821 37.2502C77.3409 37.0962 77.3253 36.9571 77.3354 36.8329C77.3456 36.7086 77.367 36.5943 77.3999 36.49C77.443 36.3916 77.4904 36.3095 77.5422 36.2435C77.6021 36.1753 77.6571 36.1215 77.7073 36.082C77.8887 35.9813 78.1014 35.8679 78.3455 35.7417C78.5895 35.6155 78.8462 35.4556 79.1156 35.2618C79.3952 35.074 79.6813 34.8454 79.9738 34.5761C80.2765 34.3126 80.5722 33.9902 80.8608 33.609C81.1494 33.2278 81.4411 32.7936 81.736 32.3065C82.0412 31.8253 82.3129 31.2837 82.551 30.6815C82.7869 30.0713 82.98 29.3987 83.1304 28.6638C83.2786 27.9208 83.3452 27.0998 83.33 26.2008C83.2217 26.4122 83.0956 26.6544 82.9517 26.9274C82.8137 27.1901 82.6616 27.4653 82.4956 27.7529C82.3274 28.0324 82.15 28.31 81.9634 28.5858C81.7746 28.8534 81.5815 29.1049 81.384 29.3401C81.1844 29.5673 80.9802 29.7609 80.7713 29.9211C80.5705 30.0791 80.3688 30.1852 80.1663 30.2395C79.6235 30.3849 79.1292 30.3871 78.6833 30.2461C78.2353 30.097 77.7732 29.7823 77.2973 29.3021C77.1647 29.1639 77.0394 28.9718 76.9214 28.7255C76.8033 28.4793 76.7084 28.2226 76.6368 27.9552C76.5196 27.5178 76.4259 27.087 76.3557 26.663C76.2855 26.239 76.2312 25.7933 76.1928 25.3261C76.1544 24.8588 76.1228 24.368 76.0979 23.8537C76.0789 23.3292 76.059 22.7527 76.0382 22.1245C76.0051 21.9684 75.9782 21.8193 75.9575 21.6772C75.9433 21.5595 75.9221 21.4479 75.8939 21.3426C75.8738 21.2351 75.8645 21.1682 75.8661 21.1417C75.8454 20.9996 75.8552 20.8581 75.8956 20.717C75.944 20.5738 76.009 20.4435 76.0904 20.3262C76.1799 20.2067 76.2789 20.1063 76.3874 20.0252C76.504 19.9418 76.6231 19.8839 76.7446 19.8513C76.9147 19.8057 77.0892 19.7764 77.268 19.7632C77.4446 19.7419 77.5946 19.7668 77.7179 19.838C77.8946 19.9469 78.0469 20.1102 78.1747 20.3277C78.3105 20.5431 78.4034 20.744 78.4534 20.9303C78.4729 21.0032 78.4755 21.1588 78.4612 21.3971C78.455 21.6332 78.4186 21.8861 78.3519 22.1557C78.3528 22.9369 78.3609 23.599 78.3762 24.1419C78.3892 24.6768 78.4049 25.1241 78.4232 25.4839C78.4473 25.8334 78.4704 26.1137 78.4922 26.3249C78.52 26.5259 78.548 26.679 78.5763 26.7843C78.6935 27.2218 78.8597 27.5506 79.075 27.7708C79.2903 27.9909 79.5032 28.0728 79.7139 28.0164C79.8354 27.9838 79.9666 27.9226 80.1075 27.8327C80.2565 27.7407 80.4049 27.6141 80.5528 27.453C81.1204 26.8494 81.581 26.2354 81.9347 25.6109C82.2943 24.9763 82.5679 24.3125 82.7556 23.6197C82.9493 22.9166 83.0751 22.1709 83.133 21.3826C83.1991 20.5921 83.2213 19.7352 83.1996 18.812C83.2006 18.7509 83.2219 18.6845 83.2634 18.6126C83.313 18.5385 83.3729 18.4703 83.4431 18.4081C83.5213 18.3437 83.6058 18.2864 83.6965 18.236C83.785 18.1776 83.8739 18.1364 83.963 18.1125C84.3923 17.9975 84.7519 18.027 85.0417 18.2012C85.3374 18.3651 85.5374 18.6414 85.6416 19.0303C85.6806 19.1761 85.7071 19.4208 85.721 19.7644C85.735 20.108 85.7422 20.4751 85.7426 20.8657C85.7409 21.2482 85.7319 21.6196 85.7156 21.98C85.7052 22.3301 85.6923 22.5897 85.6768 22.7588L85.5461 24.6042C85.4828 25.4373 85.4276 26.2032 85.3803 26.9018C85.3412 27.5982 85.275 28.2585 85.1817 28.8826C85.0863 29.4986 84.9509 30.0949 84.7754 30.6716C84.6081 31.2461 84.3727 31.8258 84.0692 32.4107C83.7658 32.9956 83.3813 33.6022 82.9158 34.2306C82.4525 34.867 81.8801 35.55 81.1987 36.2796C80.7767 36.7139 80.3476 37.0894 79.9115 37.406C79.4856 37.7285 79.0054 37.9613 78.4707 38.1046Z" fill="#CD483F"/>
<path d="M20.867 64.3938C20.8551 63.9282 20.8756 63.4538 20.9285 62.9708C20.9895 62.4855 21.0921 61.9935 21.2363 61.4947C21.3805 60.9959 21.5766 60.4962 21.8245 59.9956C22.0702 59.4869 22.3822 58.9822 22.7603 58.4815C23.0149 58.1354 23.29 57.8012 23.5857 57.4789C23.8873 57.1463 24.2016 56.845 24.5287 56.575C24.8557 56.305 25.1926 56.0715 25.5392 55.8744C25.8917 55.6671 26.2503 55.5146 26.6148 55.4169C26.8821 55.3453 27.1236 55.3066 27.3391 55.301C27.5606 55.285 27.7754 55.2926 27.9834 55.3237C27.9885 55.0184 27.9991 54.1994 28.0153 52.8666C28.0397 51.5316 28.0107 49.6899 27.9285 47.3415C27.959 47.0989 28.0357 46.883 28.1587 46.6938C28.2816 46.5045 28.4565 46.3795 28.6833 46.3188C28.8454 46.2753 29.0077 46.2492 29.1703 46.2404C29.3307 46.2234 29.4836 46.2432 29.629 46.2998C29.7723 46.3482 29.8999 46.4356 30.0118 46.5619C30.1238 46.6882 30.2113 46.8688 30.2742 47.1037L30.4463 57.5161C30.4472 57.811 30.4782 58.2021 30.5393 58.6894C30.5982 59.1685 30.6688 59.6749 30.751 60.2086C30.8332 60.7422 30.9265 61.2686 31.0309 61.7877C31.1331 62.2986 31.233 62.7364 31.3307 63.1009C31.4522 63.5546 31.52 64.0183 31.5341 64.4921C31.5376 64.6996 31.5295 64.8797 31.5096 65.0326C31.4958 65.1753 31.4562 65.3031 31.391 65.4161C31.3236 65.521 31.2264 65.6121 31.0996 65.6895C30.9786 65.7567 30.8169 65.8174 30.6144 65.8717C30.3794 65.9346 30.1906 65.9591 30.048 65.9453C29.9054 65.9314 29.7908 65.8926 29.7043 65.829C29.6156 65.7572 29.549 65.6709 29.5046 65.5699C29.4661 65.4587 29.4265 65.3434 29.3859 65.224C29.3511 65.0944 29.3083 64.9669 29.2574 64.8417C29.2124 64.7061 29.1452 64.5852 29.056 64.4789C28.9761 64.5697 28.8652 64.6906 28.7233 64.8415C28.5814 64.9924 28.4366 65.1484 28.2887 65.3096C28.1468 65.4605 28.0119 65.6052 27.8841 65.7436C27.754 65.874 27.658 65.9692 27.5959 66.0292C27.4378 66.1845 27.2576 66.3543 27.0552 66.5388C26.8506 66.7152 26.6248 66.8929 26.3775 67.072C26.1362 67.2409 25.8744 67.3979 25.592 67.543C25.3178 67.6859 25.0307 67.7976 24.731 67.8779C24.3665 67.9756 23.9937 68.0103 23.6128 67.9821C23.24 67.9518 22.8822 67.848 22.5395 67.6706C22.2049 67.4911 21.9055 67.2327 21.6415 66.8954C21.3753 66.5499 21.1727 66.118 21.0338 65.5995C20.9838 65.4132 20.9431 65.2287 20.9116 65.0461C20.8859 64.8533 20.8711 64.6359 20.867 64.3938ZM22.9432 63.7333C22.9435 63.9937 22.9741 64.2374 23.0349 64.4642C23.0978 64.6991 23.1778 64.9165 23.2747 65.1163C23.3695 65.3079 23.4901 65.4666 23.6367 65.5923C23.7914 65.7159 23.9708 65.8023 24.1751 65.8518C24.3853 65.891 24.6362 65.8715 24.9279 65.7934C25.0899 65.75 25.2565 65.6749 25.4276 65.5683C25.5987 65.4617 25.7626 65.344 25.9191 65.2152C26.0815 65.0762 26.2278 64.9415 26.3578 64.8111C26.4938 64.6705 26.6087 64.5485 26.7026 64.4452C26.9562 64.1602 27.1865 63.8857 27.3937 63.6218C27.6089 63.3558 27.7915 63.0811 27.9413 62.7978C28.0912 62.5146 28.2061 62.2146 28.2863 61.8979C28.3723 61.571 28.4151 61.2122 28.4146 60.8216C28.4088 60.4758 28.3984 60.1617 28.3835 59.8792C28.3767 59.5944 28.3639 59.32 28.3453 59.0559C28.3244 58.7836 28.2984 58.5084 28.2673 58.2302C28.2362 57.952 28.1974 57.6454 28.1511 57.3105C28.0976 57.2728 28.0289 57.2434 27.9452 57.2225C27.8673 57.1912 27.7596 57.194 27.6218 57.2309C27.2978 57.3178 26.9565 57.47 26.5981 57.6876C26.2374 57.8971 25.8777 58.1585 25.5188 58.4717C25.168 58.7828 24.8332 59.1373 24.5144 59.5353C24.2037 59.9312 23.927 60.3569 23.6845 60.8127C23.4478 61.2581 23.2615 61.7292 23.1254 62.2258C22.9893 62.7225 22.9286 63.225 22.9432 63.7333ZM34.9887 63.7358C34.942 63.1405 34.8964 62.4841 34.8518 61.7667C34.8072 61.0493 34.7644 60.3227 34.7236 59.587C34.6827 58.8512 34.6411 58.1287 34.5986 57.4194C34.5562 56.7101 34.5086 56.0629 34.4561 55.4779C34.4263 55.399 34.4038 55.3312 34.3886 55.2745C34.3712 55.2097 34.3528 55.1409 34.3332 55.068C34.2659 54.8168 34.2148 54.5613 34.18 54.3015C34.1451 54.0417 34.1278 53.7989 34.128 53.5731C34.1347 53.2413 34.1765 53.0087 34.2536 52.8752C34.3366 52.7314 34.4997 52.6269 34.7427 52.5618C34.9776 52.4988 35.177 52.4975 35.3408 52.5578C35.5105 52.6079 35.6564 52.699 35.7787 52.8312C35.9009 52.9634 36.0014 53.1275 36.0799 53.3236C36.1563 53.5115 36.2228 53.7107 36.2792 53.9214C36.3096 54.0348 36.3392 54.1614 36.368 54.3013C36.3968 54.4412 36.422 54.5517 36.4437 54.6327C36.6076 54.337 36.7826 54.034 36.9686 53.7236C37.1605 53.403 37.3722 53.1075 37.6037 52.8371C37.841 52.5565 38.1003 52.309 38.3816 52.0947C38.6709 51.8783 38.9897 51.7234 39.338 51.63C39.4758 51.5931 39.6127 51.5695 39.7488 51.559C39.8931 51.5464 40.0395 51.5419 40.188 51.5455C40.3609 51.5426 40.5422 51.5548 40.7318 51.5822C40.9274 51.5992 41.1225 51.6468 41.3171 51.7249C41.6387 51.8558 41.9299 52.0513 42.1906 52.3114C42.4572 52.5612 42.6329 52.8441 42.7175 53.16C42.7501 53.2815 42.7616 53.4217 42.7521 53.5806C42.7404 53.7313 42.7062 53.8794 42.6497 54.0248C42.5991 54.1599 42.5279 54.2832 42.4362 54.3946C42.3423 54.4979 42.2265 54.568 42.0888 54.6049C41.9511 54.6418 41.7723 54.6549 41.5524 54.6444C41.3384 54.6236 41.1514 54.5738 40.9914 54.4952C40.9217 54.4617 40.8425 54.4092 40.7538 54.3374C40.6732 54.2635 40.5926 54.1896 40.512 54.1157C40.4395 54.0396 40.3692 53.9716 40.3011 53.9117C40.2389 53.8415 40.1924 53.7976 40.1615 53.7798C40.1189 53.7825 40.0732 53.7904 40.0246 53.8034C39.9738 53.8084 39.9282 53.8162 39.8877 53.8271C39.4745 53.9378 39.1098 54.1484 38.7936 54.4589C38.4774 54.7694 38.1985 55.1219 37.957 55.5166C37.7132 55.9032 37.5003 56.3076 37.3182 56.7297C37.142 57.1416 36.9896 57.5124 36.8609 57.8421C36.8747 58.5417 36.8802 59.2913 36.8773 60.0909C36.8804 60.8802 36.8933 61.7059 36.916 62.5681L36.9974 62.8719C37.0625 63.115 37.1206 63.3642 37.1717 63.6197C37.2228 63.8752 37.2339 64.111 37.2049 64.3271C37.1484 64.4725 37.0459 64.6085 36.8975 64.7351C36.7593 64.8676 36.5809 64.9632 36.3622 65.0218C36.0219 65.113 35.7374 65.072 35.5087 64.8989C35.2778 64.7176 35.1222 64.4771 35.0419 64.1774C35.005 64.0396 34.9872 63.8924 34.9887 63.7358ZM44.435 60.1627C44.4306 59.6603 44.4299 59.0744 44.4329 58.405C44.4359 57.7356 44.4372 57.0276 44.4368 56.281C44.4446 55.5322 44.448 54.7672 44.4471 53.986C44.4461 53.2048 44.4385 52.4471 44.4241 51.7129C44.4235 51.6783 44.4377 51.6181 44.4668 51.5321C44.4937 51.4381 44.5419 51.3427 44.6115 51.2459C44.6789 51.141 44.7739 51.0418 44.8964 50.9482C45.0189 50.8545 45.1734 50.7828 45.3597 50.7329C45.4974 50.696 45.6354 50.6763 45.7737 50.674C45.9099 50.6636 46.0341 50.6737 46.1465 50.7044C46.267 50.7328 46.3687 50.7881 46.4514 50.8701C46.5401 50.9419 46.6007 51.0385 46.6333 51.16C46.6398 51.1843 46.6474 51.2127 46.6561 51.2451C46.6626 51.2694 46.6651 51.2948 46.6635 51.3212L46.6684 52.7005C46.674 54.2445 46.6726 55.7948 46.6642 57.3513C46.6639 58.9056 46.6728 60.4617 46.6909 62.0198C46.6877 62.0728 46.6797 62.14 46.6668 62.2216C46.6539 62.3032 46.6289 62.3881 46.5918 62.4762C46.5546 62.5643 46.502 62.6435 46.434 62.7138C46.366 62.7841 46.2753 62.8345 46.1619 62.8649C45.9513 62.9213 45.753 62.9267 45.5671 62.881C45.3834 62.8434 45.2174 62.775 45.0693 62.6757C44.9211 62.5765 44.7981 62.4575 44.7001 62.3188C44.6022 62.1801 44.5348 62.0418 44.4979 61.9041C44.487 61.8636 44.4772 61.8272 44.4686 61.7948C44.4599 61.7624 44.4582 61.7237 44.4636 61.6789L44.435 60.1627ZM44.2366 46.7358C44.2315 46.5548 44.2491 46.3287 44.2893 46.0575C44.3295 45.7862 44.4572 45.5175 44.6724 45.2515C44.7825 45.1438 44.9231 45.0367 45.0942 44.9301C45.2632 44.8153 45.3882 44.7471 45.4692 44.7254C45.5502 44.7037 45.6388 44.7103 45.735 44.7453C45.8393 44.7782 45.9326 44.8183 46.0148 44.8658C46.1175 44.9251 46.2183 44.9935 46.3173 45.0712C46.5241 45.0332 46.6733 45.0713 46.7647 45.1858C46.8643 45.298 46.9379 45.4433 46.9857 45.6215C47.0204 45.7511 47.0397 45.8718 47.0436 45.9837C47.0476 46.0955 47.0501 46.186 47.0513 46.2551C47.0482 46.4383 46.9974 46.6212 46.8988 46.8039C46.7979 46.9785 46.6725 47.1424 46.5225 47.2955C46.3703 47.4404 46.2046 47.5673 46.0254 47.6761C45.8462 47.7849 45.6836 47.8589 45.5378 47.8979C45.3515 47.9479 45.197 47.9545 45.0743 47.9179C44.9597 47.8792 44.7973 47.7751 44.5869 47.6057C44.4652 47.5081 44.3876 47.429 44.354 47.3686C44.3264 47.2978 44.3061 47.2382 44.2931 47.1895C44.2692 47.1004 44.2526 47.0224 44.2433 46.9554C44.24 46.8782 44.2378 46.805 44.2366 46.7358ZM56.6821 48.5716C56.3986 48.6476 56.1132 48.7979 55.8261 49.0224C55.5368 49.2389 55.2483 49.5072 54.9608 49.8274C54.6732 50.1475 54.3862 50.5023 54.0998 50.8916C53.8193 51.2707 53.5462 51.6608 53.2803 52.062C53.1433 52.2636 53.0112 52.451 52.8839 52.624C52.7544 52.789 52.6174 52.9255 52.4727 53.0338C52.4092 53.2505 52.3539 53.5301 52.3068 53.8727C52.2656 54.205 52.233 54.5697 52.2092 54.9668C52.1832 55.3558 52.1645 55.7559 52.1531 56.1671C52.1476 56.5679 52.1519 56.9402 52.1658 57.2837C52.1709 57.4647 52.183 57.6395 52.2021 57.808C52.2212 57.9765 52.2395 58.1583 52.257 58.3533C52.2724 58.5402 52.284 58.7455 52.2918 58.9692C52.3077 59.1907 52.318 59.4397 52.3227 59.7163C52.3234 59.8811 52.2922 60.024 52.2292 60.1451C52.1639 60.2581 52.0892 60.3519 52.005 60.4266C51.9209 60.5012 51.8353 60.5545 51.7483 60.5865C51.6636 60.6266 51.5969 60.6532 51.5483 60.6662C51.2404 60.7487 50.9698 60.743 50.7363 60.6493C50.5028 60.5556 50.3296 60.2981 50.2167 59.8768C50.1863 59.7634 50.1589 59.6449 50.1344 59.5212C50.1078 59.3894 50.0941 59.2411 50.0934 59.0763C50.0654 58.259 50.0499 57.5207 50.047 56.8616C50.0521 56.2004 50.0692 55.5836 50.0982 55.0115C50.1273 54.4393 50.165 53.8996 50.2114 53.3922C50.2637 52.8746 50.316 52.357 50.3683 51.8393C50.4266 51.3114 50.4856 50.7703 50.5455 50.2159C50.6113 49.6513 50.6751 49.0308 50.7369 48.3543C50.7486 48.2035 50.8438 48.0565 51.0225 47.9131C51.2071 47.7594 51.4168 47.6511 51.6518 47.5882C51.9596 47.5057 52.2292 47.5073 52.4605 47.5929C52.6999 47.6763 52.8544 47.8477 52.9239 48.1069C52.9304 48.1312 52.9342 48.178 52.9354 48.2471C52.9365 48.3163 52.9307 48.3916 52.9178 48.4732L52.7218 49.8803C52.9904 49.5218 53.2711 49.16 53.5641 48.795C53.8651 48.4278 54.1818 48.0868 54.5142 47.772C54.8445 47.449 55.1867 47.1707 55.5408 46.9369C55.9008 46.6928 56.2712 46.5197 56.652 46.4177C57.4297 46.2093 58.0937 46.2571 58.6441 46.5612C59.1922 46.8571 59.5835 47.4426 59.818 48.3175C59.9526 48.8198 60.0165 49.4148 60.0097 50.1025C60.0111 50.7881 59.9769 51.5353 59.9071 52.3441C59.8432 53.1427 59.7659 53.9883 59.6751 54.8809C59.5903 55.7632 59.53 56.6563 59.4944 57.5602C59.4822 57.8066 59.4563 58.0176 59.4165 58.1932C59.3848 58.3667 59.3283 58.5121 59.2469 58.6294C59.1676 58.7548 59.0605 58.8573 58.9255 58.9369C58.7986 59.0143 58.6339 59.0802 58.4314 59.1344C58.1155 59.2191 57.8805 59.2169 57.7264 59.128C57.5745 59.0471 57.4638 58.8771 57.3943 58.6178C57.3335 58.391 57.2921 58.1069 57.2701 57.7655C57.254 57.4138 57.2546 57.0272 57.272 56.6058C57.2952 56.1741 57.3282 55.7138 57.3708 55.2248C57.4215 54.7337 57.4823 54.2312 57.553 53.7173C57.607 53.3034 57.657 52.8906 57.703 52.4789C57.7571 52.065 57.7942 51.6687 57.8142 51.2899C57.8424 50.909 57.8506 50.5508 57.8389 50.2153C57.8271 49.8798 57.7854 49.5784 57.7138 49.3111C57.6465 49.06 57.5312 48.8564 57.3679 48.7005C57.2104 48.5343 56.9819 48.4913 56.6821 48.5716ZM67.389 50.0919C67.227 50.1353 67.0556 50.2247 66.8748 50.3599C66.6918 50.4871 66.5131 50.6305 66.3388 50.7901C66.1645 50.9497 65.9994 51.1111 65.8434 51.2745C65.6875 51.4378 65.5493 51.5703 65.429 51.672L65.4954 56.343C65.5004 56.524 65.4339 56.6807 65.2958 56.8132C65.1576 56.9458 65.0197 57.0305 64.882 57.0674C64.4445 57.1846 64.122 57.1799 63.9144 57.0531C63.7127 56.9162 63.5739 56.7059 63.4979 56.4224C63.4653 56.3008 63.4409 56.1771 63.4245 56.0513C63.4141 55.9152 63.4066 55.7739 63.4021 55.6275L63.3954 55.4079C63.3854 55.1761 63.3764 54.8833 63.3684 54.5295C63.3685 54.1734 63.3683 53.8001 63.3679 53.4095C63.3652 53.0108 63.3626 52.6121 63.3599 52.2134C63.3632 51.8044 63.3671 51.4301 63.3716 51.0902C63.3782 50.7585 63.3852 50.2661 63.3925 49.6129C63.4079 48.9575 63.42 48.2249 63.4287 47.4151C63.4456 46.6031 63.4578 45.7576 63.4654 44.8786C63.4789 43.9893 63.4871 43.1449 63.4899 42.3453C63.5009 41.5436 63.5103 40.8334 63.5182 40.2148C63.5239 39.5881 63.5223 39.1283 63.5133 38.8355C63.5558 38.7026 63.6443 38.579 63.7787 38.4649C63.913 38.3507 64.0855 38.2654 64.2962 38.209C64.442 38.1699 64.5973 38.15 64.7621 38.1493C64.9247 38.1404 65.0776 38.1602 65.2208 38.2087C65.37 38.2469 65.5013 38.3159 65.6149 38.4157C65.7263 38.5074 65.8026 38.6302 65.8439 38.7841C65.8721 38.8894 65.8814 39.0215 65.8719 39.1804C65.7635 40.7202 65.6733 42.3116 65.6013 43.9546C65.5271 45.5895 65.5028 47.2327 65.5286 48.8842C65.6165 48.7912 65.7751 48.6054 66.0044 48.3269C66.2337 48.0484 66.4826 47.7299 66.7512 47.3714C67.028 47.0107 67.3014 46.6379 67.5716 46.2529C67.8418 45.8679 68.0629 45.5265 68.2349 45.2286C68.3535 45.0232 68.471 44.8137 68.5875 44.6002C68.7098 44.3763 68.8233 44.1679 68.9279 43.975C69.0384 43.7717 69.1341 43.5941 69.2149 43.4422C69.2936 43.2822 69.3556 43.157 69.4009 43.0668C69.507 42.8473 69.6341 42.657 69.7819 42.4958C69.9357 42.3244 70.1057 42.2137 70.292 42.1637C70.4703 42.116 70.6399 42.1009 70.8009 42.1186C70.9619 42.1362 71.107 42.1755 71.2362 42.2364C71.3632 42.2892 71.4703 42.3647 71.5574 42.4629C71.6423 42.553 71.6978 42.6467 71.7238 42.7439C71.7564 42.8654 71.7628 43.0026 71.743 43.1555C71.7232 43.3084 71.6901 43.4606 71.6438 43.6119C71.6057 43.761 71.5572 43.9043 71.4985 44.0416C71.4376 44.1708 71.3823 44.2724 71.3327 44.3465C71.1661 44.5995 70.9765 44.8804 70.764 45.1891C70.5494 45.4898 70.3247 45.8018 70.0901 46.1251C69.8533 46.4404 69.6095 46.7618 69.3587 47.0895C69.1138 47.4069 68.8748 47.7141 68.6418 48.011C69.2282 48.1578 69.7474 48.4267 70.1995 48.8179C70.6576 49.1987 71.0619 49.6548 71.4127 50.1859C71.7612 50.709 72.0577 51.2808 72.3021 51.9013C72.5465 52.5217 72.7501 53.1357 72.9129 53.7433C72.9259 53.7919 72.9425 53.87 72.9626 53.9775C72.9805 54.0768 72.9893 54.1744 72.9889 54.27C72.9874 54.4267 72.9746 54.5733 72.9505 54.7101C72.9263 54.8468 72.8765 54.9687 72.801 55.0757C72.7358 55.1887 72.6408 55.288 72.5161 55.3735C72.3995 55.4568 72.244 55.5245 72.0496 55.5766C71.8633 55.6265 71.6966 55.6365 71.5496 55.6064C71.4026 55.5763 71.2705 55.5206 71.1531 55.4391C71.0439 55.3555 70.9517 55.2543 70.8764 55.1356C70.8012 55.0168 70.7462 54.8926 70.7115 54.763C70.603 54.3579 70.479 53.944 70.3397 53.5211C70.1981 53.0902 70.0367 52.6819 69.8552 52.2964C69.6738 51.9109 69.4705 51.5573 69.2453 51.2355C69.0261 50.9036 68.7805 50.6351 68.5086 50.4301C68.3128 50.2828 68.136 50.1739 67.9782 50.1033C67.8284 50.0306 67.6645 50.0181 67.4862 50.0658L67.389 50.0919Z" fill="#CD483F"/>
<circle cx="116.8" cy="40" r="22.3294" fill="#CD483F"/>
</svg>
